<svg width="18" height="12" viewBox="0 0 18 12" fill="none" xmlns="http://www.w3.org/2000/svg">
<path d="M17.8913 5.54375C16.1966 2.23719 12.8416 0 9 0C5.15843 0 1.80249 2.23875 0.108733 5.54406C0.0372461 5.68547 0 5.8417 0 6.00016C0 6.15861 0.0372461 6.31484 0.108733 6.45625C1.80342 9.76281 5.15843 12 9 12C12.8416 12 16.1975 9.76125 17.8913 6.45594C17.9628 6.31453 18 6.1583 18 5.99984C18 5.84139 17.9628 5.68516 17.8913 5.54375ZM9 10.5C8.10998 10.5 7.23995 10.2361 6.49993 9.74161C5.75991 9.24715 5.18313 8.54434 4.84253 7.72208C4.50194 6.89981 4.41282 5.99501 4.58646 5.12209C4.76009 4.24918 5.18868 3.44736 5.81801 2.81802C6.44735 2.18868 7.24918 1.7601 8.12209 1.58647C8.99501 1.41283 9.89981 1.50195 10.7221 1.84254C11.5443 2.18314 12.2472 2.75991 12.7416 3.49993C13.2361 4.23995 13.5 5.10998 13.5 6C13.5003 6.59103 13.3841 7.17632 13.1581 7.72242C12.932 8.26851 12.6005 8.7647 12.1826 9.18262C11.7647 9.60054 11.2685 9.932 10.7224 10.158C10.1763 10.3841 9.59103 10.5003 9 10.5ZM9 3C8.73223 3.00374 8.46618 3.04358 8.20906 3.11844C8.42101 3.40646 8.52271 3.7609 8.49574 4.11748C8.46876 4.47406 8.31489 4.80917 8.06203 5.06203C7.80917 5.31489 7.47406 5.46876 7.11748 5.49574C6.7609 5.52271 6.40646 5.42101 6.11843 5.20906C5.95442 5.81331 5.98403 6.45377 6.20308 7.04031C6.42214 7.62685 6.81961 8.12993 7.33956 8.47874C7.85951 8.82754 8.47575 9.00452 9.10155 8.98475C9.72735 8.96498 10.3312 8.74946 10.8281 8.36853C11.325 7.9876 11.6899 7.46044 11.8715 6.86125C12.0531 6.26205 12.0422 5.62099 11.8404 5.0283C11.6386 4.43561 11.256 3.92114 10.7465 3.55728C10.2369 3.19343 9.62611 2.99853 9 3Z" fill="#0353C1"/>
</svg>
