<svg width="18" height="20" viewBox="0 0 18 20" fill="none" xmlns="http://www.w3.org/2000/svg">
<path d="M16.0714 8.75H15.1071V5.9375C15.1071 2.66406 12.367 0 9 0C5.63304 0 2.89286 2.66406 2.89286 5.9375V8.75H1.92857C0.863839 8.75 0 9.58984 0 10.625V18.125C0 19.1602 0.863839 20 1.92857 20H16.0714C17.1362 20 18 19.1602 18 18.125V10.625C18 9.58984 17.1362 8.75 16.0714 8.75ZM11.8929 8.75H6.10714V5.9375C6.10714 4.38672 7.40491 3.125 9 3.125C10.5951 3.125 11.8929 4.38672 11.8929 5.9375V8.75Z" fill="#0857C6"/>
</svg>
