<svg width="19" height="15" viewBox="0 0 19 15" fill="none" xmlns="http://www.w3.org/2000/svg">
<path d="M9.49991 11.7187C7.24812 11.7187 5.42531 9.99871 5.25758 7.81904L2.14337 5.44397C1.73398 5.9508 1.35724 6.48663 1.05325 7.07256C0.985333 7.20513 0.949949 7.3516 0.949949 7.50015C0.949949 7.64869 0.985333 7.79516 1.05325 7.92773C2.66319 11.0276 5.85043 13.1249 9.49991 13.1249C10.2988 13.1249 11.0695 13.0078 11.8123 12.8185L10.2718 11.6422C10.0174 11.6907 9.75901 11.7163 9.49991 11.7187ZM18.8164 13.4208L15.5345 10.9177C16.5314 10.0886 17.3514 9.07214 17.9466 7.92744C18.0145 7.79487 18.0499 7.6484 18.0499 7.49985C18.0499 7.35131 18.0145 7.20484 17.9466 7.07227C16.3366 3.9724 13.1494 1.87506 9.49991 1.87506C7.97145 1.87689 6.46782 2.25661 5.12636 2.97954L1.34953 0.0988063C1.30027 0.0609867 1.24396 0.0331148 1.18378 0.0167833C1.12361 0.000451836 1.06077 -0.00401906 0.99885 0.0036261C0.936928 0.0112713 0.87714 0.0308826 0.822901 0.0613395C0.768662 0.0917964 0.721037 0.132502 0.682746 0.18113L0.0999824 0.921454C0.0226759 1.01959 -0.0119646 1.14402 0.00367949 1.26736C0.0193236 1.3907 0.0839712 1.50285 0.183404 1.57916L17.6503 14.9012C17.6995 14.939 17.7559 14.9669 17.816 14.9832C17.8762 14.9995 17.939 15.004 18.001 14.9964C18.0629 14.9887 18.1227 14.9691 18.1769 14.9387C18.2312 14.9082 18.2788 14.8675 18.3171 14.8189L18.9001 14.0785C18.9774 13.9804 19.012 13.8559 18.9963 13.7326C18.9806 13.6092 18.9159 13.4971 18.8164 13.4208ZM13.3622 9.26072L12.1955 8.37069C12.2938 8.09046 12.3459 7.79651 12.3499 7.5C12.3557 7.0659 12.2582 6.63651 12.0654 6.24632C11.8725 5.85614 11.5896 5.51602 11.2393 5.25331C10.8891 4.99059 10.4813 4.8126 10.0487 4.73362C9.61614 4.65465 9.17082 4.67689 8.74852 4.79856C8.92754 5.03795 9.02437 5.32751 9.02491 5.62502C9.02048 5.72402 9.00515 5.82225 8.97919 5.91798L6.7939 4.2513C7.553 3.6253 8.51064 3.28201 9.49991 3.28129C10.0614 3.28099 10.6174 3.38989 11.1362 3.6018C11.655 3.8137 12.1264 4.12443 12.5235 4.51624C12.9205 4.90804 13.2354 5.37323 13.4501 5.88521C13.6648 6.39718 13.7752 6.94591 13.7749 7.5C13.7749 8.13369 13.6178 8.7243 13.3622 9.26102V9.26072Z" fill="#0857C6"/>
</svg>
